{"title":"Kiseijuu: Sei no Kakuritsu (EngDub) 720p x264 Download","magnet":"magnet:?xt=urn:btih:d7529c955dcea98f89406a091a091bcdf99790cf&dn=Kiseijuu%3A+Sei+no+Kakuritsu+%28EngDub%29+720p+x264+Download&tr=udp%3A%2F%2Ftracker.leechers-paradise.org%3A6969&tr=udp%3A%2F%2Fzer0day.ch%3A1337&tr=udp%3A%2F%2Fopen.demonii.com%3A1337&tr=udp%3A%2F%2Ftracker.coppersurfer.tk%3A6969&tr=udp%3A%2F%2Fexodus.desync.com%3A6969","uploader":"digimaza","categoryP":"video","categoryS":"hd___tv_shows","size":"3223704604","seeders":"1","leechers":"1","description":"Parasyte -the maxim- [Kiseijuu: Sei no Kakuritsu] (EngDub) 720p x264 Download  <a href=\"\nhttps://s7.postimg.org/lck9jcmqj/Parasyte_-the_maxim-digimaza.png\" rel=\"nofollow\" target=\"_NEW\">\nhttps://s7.postimg.org/lck9jcmqj/Parasyte_-the_maxim-digimaza.png</a>\r\n\r\n..::File Specs::.. \r\nGeneral \r\n\r\nFormat : Matroska \r\nFormat version : Version 4 / Version 2 \r\nFile size : 141 MiB \r\nDuration : 22 min 51 s \r\nOverall bit rate : 864 kb/s \r\n\r\nVideo \r\nID : 1 \r\nFormat : AVC \r\nFormat/Info : Advanced Video Codec \r\nFormat profile : High <a class=\"__cf_email__\" href=\"/cdn-cgi/l/email-protection\" data-cfemail=\"81b0b1c1cdb4afb0\">[email&#xA0;protected]</a><script data-cfhash=\"f9e31\" type=\"text/javascript\">/* <![CDATA[ */!function(t,e,r,n,c,a,p){try{t=document.currentScript||function(){for(t=document.getElementsByTagName('script'),e=t.length;e--;)if(t[e].getAttribute('data-cfhash'))return t[e]}();if(t&&(c=t.previousSibling)){p=t.parentNode;if(a=c.getAttribute('data-cfemail')){for(e='',r='0x'+a.substr(0,2)|0,n=2;a.length-n;n+=2)e+='%'+('0'+('0x'+a.substr(n,2)^r).toString(16)).slice(-2);p.replaceChild(document.createTextNode(decodeURIComponent(e)),c)}p.removeChild(t)}}catch(u){}}()/* ]]> */</script> \r\nFormat settings, CABAC : Yes \r\nFormat settings, ReFrames : 16 frames \r\nCodec ID : V_MPEG4/ISO/AVC \r\nDuration : 22 min 51 s \r\nBit rate : 757 kb/s \r\nWidth : 1 280 pixels \r\nHeight : 720 pixels \r\nDisplay aspect ratio : 16:9 \r\nFrame rate mode : Variable \r\nFrame rate : 23.976 FPS \r\nColor space : YUV \r\nChroma subsampling : 4:2:0 \r\nBit depth : 10 bits \r\nScan type : Progressive \r\nBits/(Pixel*Frame) : 0.034 \r\nStream size : 124 MiB (88%) \r\nLanguage : English \r\n\r\nAudio \r\n\r\nFormat : AAC \r\nFormat/Info : Advanced Audio Codec \r\nFormat profile : Main \r\nCodec ID : A_AAC \r\nDuration : 22 min 50 s \r\nBit rate : 93.4 kb/s \r\nChannel(s) : 2 channels \r\nChannel positions : Front: L R \r\nSampling rate : 48.0 kHz \r\nFrame rate : 46.875 FPS (1024 spf) \r\nCompression mode : Lossy \r\nStream size : 15.3 MiB (11%) \r\nLanguage : English \r\n\r\nText \r\nID : 5 \r\nFormat : ASS \r\nCodec ID : S_TEXT/ASS \r\nCodec ID/Info : Advanced Sub Station Alpha \r\nDuration : 22 min 46 s \r\nBit rate : 1 917 b/s \r\nCount of elements : 2634 \r\nCompression mode : Lossless \r\nStream size : 320 KiB (0%) \r\nTitle : Full Subtitles \r\nLanguage : English \r\n\r\n..::ScreenShots::.. \r\n <a href=\"\nhttps://s7.postimg.org/ds6ig5k63/vlcsnap-2017-06-22-00h12m14s468.png\" rel=\"nofollow\" target=\"_NEW\">\nhttps://s7.postimg.org/ds6ig5k63/vlcsnap-2017-06-22-00h12m14s468.png</a>  <a href=\"\nhttps://s7.postimg.org/8usxv1i6z/vlcsnap-2017-06-22-00h12m39s942.png\" rel=\"nofollow\" target=\"_NEW\">\nhttps://s7.postimg.org/8usxv1i6z/vlcsnap-2017-06-22-00h12m39s942.png</a>  <a href=\"\nhttps://s7.postimg.org/bdj89gtaz/vlcsnap-2017-06-22-00h13m17s728.png\" rel=\"nofollow\" target=\"_NEW\">\nhttps://s7.postimg.org/bdj89gtaz/vlcsnap-2017-06-22-00h13m17s728.png</a> \r\n\r\n================================================================ \r\nSeed Seed Seed Seed Seed Seed Seed Seed Seed Seed Seed Seed Seed \r\nTo direct download or Watch Online this file, Visit. \r\r\nSeed Seed Seed Seed Seed Seed Seed Seed Seed Seed Seed Seed Seed \r\n================================================================","last_updated":"2017-06-22T12:24:13.205Z","parsed":{"xt":"urn:btih:d7529c955dcea98f89406a091a091bcdf99790cf","dn":"Kiseijuu: Sei no Kakuritsu (EngDub) 720p x264 Download","tr":["udp://exodus.desync.com:6969","udp://open.demonii.com:1337","udp://tracker.coppersurfer.tk:6969","udp://tracker.leechers-paradise.org:6969","udp://zer0day.ch:1337"],"infoHash":"d7529c955dcea98f89406a091a091bcdf99790cf","infoHashBuffer":{"type":"Buffer","data":[215,82,156,149,93,206,169,143,137,64,106,9,26,9,27,205,249,151,144,207]},"name":"Kiseijuu: Sei no Kakuritsu (EngDub) 720p x264 Download","announce":["udp://exodus.desync.com:6969","udp://open.demonii.com:1337","udp://tracker.coppersurfer.tk:6969","udp://tracker.leechers-paradise.org:6969","udp://zer0day.ch:1337"],"urlList":[]}}